<svg xmlns="http://www.w3.org/2000/svg" width="153" height="40" viewBox="0 0 153 40">
    <path fill="#FFF" fill-rule="evenodd" d="M71.682 16.588l.002 16.104-.417.326c-2.662 2.09-6.26 2.731-9.594 2.667-8.518-.168-12.618-5.717-13.062-13.072l3.429-11.717c1.434-1.626 3.273-2.85 5.506-3.557 4.567-1.444 8.941-.867 13.332.657l-1.66 6.422-1.175-.443c-2.088-.785-5.535-1.006-7.662-.283-1.765.6-2.815 1.993-3.38 3.683-.702 2.095-.704 5.567-.02 7.667.515 1.58 1.727 2.976 3.314 3.601 1.371.54 2.795.418 4.071-.276l-.001-5.233-2.888.001-.002-6.547h10.207zm-60.91 14.899V21.17c0-.841-.038-1.54-.11-2.094-.068-.51-.162-.9-.282-1.169a.61.61 0 0 0-.27-.295c-.172-.093-.426-.14-.76-.14-.577 0-1.028.141-1.346.423-.194.17-.365.366-.514.586l-.001-.002a3.673 3.673 0 0 0-.318.587v13.54H0V10.962l7.028-.004v1.182c.078-.056.157-.111.237-.165 1.203-.812 2.665-1.103 4.096-1.103 1.249 0 2.512.238 3.577.918.51.326.955.752 1.335 1.276l.044.062.01-.01a7.756 7.756 0 0 1 1.452-1.195 6.428 6.428 0 0 1 1.823-.794 8.115 8.115 0 0 1 2.076-.257c.572 0 1.115.036 1.628.107a7.927 7.927 0 0 1 1.443.333 4.87 4.87 0 0 1 2.355 1.694c.291.388.544.83.751 1.327.198.472.363 1.005.492 1.595.246 1.116.368 2.51.368 4.18v12.5h-7.17V20.828c0-.704-.036-1.307-.106-1.804-.066-.466-.158-.84-.277-1.119a.57.57 0 0 0-.258-.288l-.002.004c-.186-.098-.459-.148-.817-.148-.322 0-.6.04-.831.118-.2.069-.371.17-.513.3h-.004a2.592 2.592 0 0 0-.473.6c-.12.206-.228.45-.321.728v13.388h-7.17v-1.12zm29.086-8.87l2.397-11.756h7.837L44.63 29.525c-.399 1.315-1.166 3.485-1.331 3.945-.71 1.982-1.812 4.31-3.595 5.582-2.25 1.603-5.372.942-7.724-.277l1.256-6.064c.615.233 1.38.63 2.043.63.883 0 1.458-.965 1.622-1.688l-9.358-20.792h8.323l3.993 11.756zm41.534-10.453v20.562h-7.171v-20.56l7.171-.002zm-.26-10.787A4.696 4.696 0 0 0 77.808 0a4.694 4.694 0 0 0-3.326 1.377 4.694 4.694 0 0 0-1.378 3.327c0 1.299.529 2.476 1.378 3.326a4.694 4.694 0 0 0 3.326 1.377 4.696 4.696 0 0 0 3.326-1.377 4.694 4.694 0 0 0 1.377-3.326 4.694 4.694 0 0 0-1.377-3.327zm45.06 17.632v13.568h-7.313V10.831h6.22l-.004 1.164c.233-.225.482-.43.746-.612a5.402 5.402 0 0 1 1.548-.738 6.142 6.142 0 0 1 1.74-.243c.393 0 .82.043 1.283.13h.005c.422.078.877.199 1.363.36l.885.295-1.514 6.738c-1.56-1.07-4.432-1.094-4.96 1.084zm14.375-7.113v11.047c0 .743.042 1.364.124 1.864.073.445.175.789.305 1.03a.71.71 0 0 0 .328.311c.207.1.503.15.885.15.675 0 1.224-.19 1.644-.568h.005c.241-.217.458-.466.648-.747h.004a4.27 4.27 0 0 0 .392-.726V10.776h7.297v8.152h.018V32.56h-6.101v-1.544a9.075 9.075 0 0 1-1.185.856 7.514 7.514 0 0 1-2.047.856c-.73.188-1.5.283-2.309.283-.541 0-1.063-.037-1.562-.11a8.392 8.392 0 0 1-1.437-.34 5.646 5.646 0 0 1-1.332-.644v-.001a5.385 5.385 0 0 1-1.103-.967c-.322-.37-.603-.8-.843-1.287v-.004a8.651 8.651 0 0 1-.58-1.563 12.39 12.39 0 0 1-.337-1.882 20.851 20.851 0 0 1-.11-2.22V10.776h7.296v1.12zm-42.925-8.37l7.203 2.423v5.582h3.284v6.413h-3.284v5.907c0 .646-.133 2.56.776 2.56 1.177 0 2.102-.5 3.135-.973v6.602c-.576.23-1.164.428-1.84.595-1.75.437-3.952.578-5.677-.025-2.866-1.002-3.564-3.69-3.564-6.483 0-9.575-.033-13.842-.033-22.6zm-13.604 9.808c0-.315.001-1.226.008-1.548.048-2.37.353-4.891 2.032-6.675 2.492-2.646 7.458-2.576 10.934-1.722L95.55 9.652c-1.296-.637-4.6-.448-4.288 1.908h4.806v6.304H91.48l-.034 14.93H84.2l-.161-19.46zm32.117 14.239a3.57 3.57 0 0 0-2.53-1.048 3.57 3.57 0 0 0-2.53 1.048 3.571 3.571 0 0 0-1.049 2.53 3.57 3.57 0 0 0 1.049 2.53 3.571 3.571 0 0 0 2.53 1.049 3.57 3.57 0 0 0 2.53-1.049 3.57 3.57 0 0 0 1.048-2.53c0-.988-.402-1.884-1.048-2.53z"/>
</svg>
